<?xml version="1.0" encoding="UTF-8" standalone="no"?><!DOCTYPE svg PUBLIC "-//W3C//DTD SVG 1.1//EN" "http://www.w3.org/Graphics/SVG/1.1/DTD/svg11.dtd"><svg width="100%" height="100%" viewBox="0 0 651 186" version="1.1" xmlns="http://www.w3.org/2000/svg" xmlns:xlink="http://www.w3.org/1999/xlink" xml:space="preserve" xmlns:serif="http://www.serif.com/" style="fill-rule:evenodd;clip-rule:evenodd;stroke-linejoin:round;stroke-miterlimit:2;"><g id="Layer-1" serif:id="Layer 1"><path d="M189.76,167.134c6.712,-0 11.687,-2.254 14.912,-6.767c3.225,-4.512 4.838,-11.121 4.838,-19.833c-0,-8.709 -1.613,-15.342 -4.838,-19.909c-3.225,-4.562 -8.2,-6.845 -14.912,-6.845c-6.821,-0 -11.859,2.295 -15.109,6.883c-3.254,4.592 -4.879,11.217 -4.879,19.871c0,8.658 1.625,15.254 4.879,19.791c3.25,4.542 8.288,6.809 15.109,6.809m-0,-68.229c6.033,-0 11.5,0.97 16.408,2.912c4.904,1.942 9.087,4.696 12.55,8.263c3.462,3.57 6.137,7.92 8.025,13.062c1.892,5.142 2.837,10.888 2.837,17.238c0,6.4 -0.945,12.17 -2.837,17.308c-1.888,5.146 -4.563,9.525 -8.025,13.146c-3.463,3.616 -7.646,6.4 -12.55,8.341c-4.908,1.938 -10.375,2.909 -16.408,2.909c-6.034,-0 -11.517,-0.971 -16.45,-2.909c-4.93,-1.941 -9.142,-4.725 -12.63,-8.341c-3.487,-3.621 -6.191,-8 -8.104,-13.146c-1.916,-5.138 -2.875,-10.908 -2.875,-17.308c0,-6.35 0.959,-12.096 2.875,-17.238c1.913,-5.142 4.617,-9.492 8.104,-13.062c3.488,-3.567 7.7,-6.321 12.63,-8.263c4.933,-1.942 10.416,-2.912 16.45,-2.912" style="fill:#3a3a3a;fill-rule:nonzero;"/><rect x="246.025" y="63.962" width="19.438" height="116.942" style="fill:#3a3a3a;"/><path d="M308.117,180.903l-19.438,0l0,-80.741l19.438,-0l-0,80.741Zm2.908,-104.266c0,1.679 -0.342,3.25 -1.021,4.721c-0.683,1.466 -1.587,2.754 -2.716,3.854c-1.13,1.104 -2.455,1.983 -3.975,2.637c-1.521,0.658 -3.146,0.983 -4.88,0.983c-1.679,0 -3.262,-0.325 -4.758,-0.983c-1.496,-0.654 -2.796,-1.533 -3.896,-2.637c-1.1,-1.1 -1.979,-2.388 -2.637,-3.855c-0.654,-1.47 -0.984,-3.041 -0.984,-4.72c0,-1.734 0.33,-3.359 0.984,-4.88c0.658,-1.525 1.537,-2.837 2.637,-3.937c1.1,-1.1 2.4,-1.979 3.896,-2.638c1.496,-0.654 3.079,-0.983 4.758,-0.983c1.734,0 3.359,0.329 4.88,0.983c1.52,0.659 2.845,1.538 3.975,2.638c1.129,1.1 2.033,2.412 2.716,3.937c0.679,1.521 1.021,3.146 1.021,4.88" style="fill:#3a3a3a;fill-rule:nonzero;"/><path d="M360.995,166.662c4.038,-0 7.475,-0.838 10.309,-2.517c2.833,-1.679 5.508,-4.067 8.025,-7.163l-0,-36.2c-2.2,-2.675 -4.6,-4.562 -7.2,-5.666c-2.596,-1.1 -5.388,-1.654 -8.379,-1.654c-2.938,-0 -5.6,0.554 -7.988,1.654c-2.387,1.104 -4.404,2.766 -6.058,5c-1.654,2.229 -2.925,5.058 -3.817,8.496c-0.892,3.437 -1.337,7.491 -1.337,12.158c-0,4.721 0.379,8.725 1.141,12.004c0.759,3.279 1.85,5.954 3.263,8.025c1.416,2.071 3.15,3.567 5.196,4.484c2.045,0.92 4.329,1.379 6.845,1.379m25.892,14.241c-2.521,0 -4.171,-1.179 -4.958,-3.541l-1.575,-7.788c-1.679,1.888 -3.438,3.596 -5.271,5.113c-1.838,1.525 -3.817,2.833 -5.942,3.937c-2.125,1.1 -4.408,1.954 -6.846,2.554c-2.441,0.605 -5.079,0.909 -7.908,0.909c-4.408,-0 -8.45,-0.921 -12.121,-2.754c-3.671,-1.838 -6.833,-4.5 -9.483,-7.988c-2.65,-3.487 -4.696,-7.804 -6.138,-12.946c-1.441,-5.141 -2.166,-11.016 -2.166,-17.629c-0,-5.979 0.816,-11.537 2.441,-16.683c1.625,-5.142 3.959,-9.6 7.005,-13.38c3.041,-3.775 6.687,-6.725 10.937,-8.85c4.25,-2.125 9.025,-3.187 14.321,-3.187c4.512,-0 8.371,0.721 11.571,2.162c3.2,1.446 6.058,3.371 8.575,5.784l-0,-42.65l19.437,-0l0,116.937l-11.879,0Z" style="fill:#3a3a3a;fill-rule:nonzero;"/><path d="M445.277,168.785c1.996,0 3.829,-0.179 5.508,-0.541c1.68,-0.363 3.267,-0.904 4.763,-1.629c1.496,-0.721 2.937,-1.613 4.325,-2.671c1.392,-1.059 2.796,-2.309 4.212,-3.754l0,-13.517c-5.666,-0 -10.4,0.354 -14.204,1.071c-3.804,0.712 -6.862,1.625 -9.166,2.733c-2.309,1.113 -3.95,2.404 -4.921,3.883c-0.971,1.48 -1.454,3.092 -1.454,4.834c-0,3.437 1.008,5.891 3.029,7.371c2.016,1.483 4.654,2.22 7.908,2.22m37.775,12.121l-8.733,0c-1.842,0 -3.284,-0.275 -4.329,-0.829c-1.05,-0.55 -1.838,-1.662 -2.363,-3.342l-1.733,-5.745c-2.042,1.837 -4.05,3.45 -6.021,4.837c-1.967,1.392 -4,2.558 -6.096,3.504c-2.1,0.946 -4.329,1.654 -6.687,2.125c-2.363,0.471 -4.988,0.709 -7.871,0.709c-3.413,-0 -6.559,-0.463 -9.446,-1.384c-2.883,-0.921 -5.363,-2.3 -7.433,-4.141c-2.075,-1.846 -3.688,-4.134 -4.842,-6.871c-1.154,-2.738 -1.733,-5.925 -1.733,-9.554c-0,-3.055 0.8,-6.067 2.404,-9.042c1.596,-2.971 4.262,-5.658 7.987,-8.054c3.725,-2.392 8.679,-4.379 14.871,-5.959c6.192,-1.579 13.879,-2.37 23.058,-2.37l0,-4.759c0,-5.441 -1.141,-9.475 -3.425,-12.091c-2.279,-2.617 -5.6,-3.925 -9.954,-3.925c-3.146,-0 -5.771,0.366 -7.866,1.1c-2.1,0.737 -3.925,1.562 -5.471,2.479c-1.55,0.921 -2.979,1.746 -4.288,2.479c-1.312,0.737 -2.754,1.104 -4.329,1.104c-1.312,0 -2.442,-0.342 -3.383,-1.025c-0.946,-0.679 -1.704,-1.521 -2.284,-2.517l-3.541,-6.216c9.287,-8.5 20.487,-12.75 33.604,-12.75c4.721,-0 8.929,0.775 12.629,2.321c3.7,1.55 6.833,3.7 9.408,6.454c2.567,2.754 4.525,6.046 5.859,9.875c1.337,3.829 2.008,8.029 2.008,12.591l0,50.996Z" style="fill:#3a3a3a;fill-rule:nonzero;"/><path d="M560.564,108.192c0,1.363 -0.25,2.688 -0.746,3.975c-0.5,1.283 -1.087,2.371 -1.77,3.263l-38.4,50.525l39.816,-0l0,14.95l-62.404,-0l0,-8.105c0,-0.891 0.208,-1.954 0.629,-3.187c0.421,-1.233 1.075,-2.4 1.967,-3.504l38.721,-51.071l-39.034,-0l0,-14.875l61.221,-0l0,8.029Z" style="fill:#3a3a3a;fill-rule:nonzero;"/><path d="M609.828,112.835c-5.663,-0 -10.1,1.6 -13.296,4.8c-3.204,3.2 -5.25,7.737 -6.142,13.612l36.517,0c0,-2.517 -0.342,-4.887 -1.025,-7.121c-0.683,-2.229 -1.729,-4.183 -3.146,-5.862c-1.416,-1.679 -3.204,-3 -5.354,-3.975c-2.15,-0.971 -4.671,-1.454 -7.554,-1.454m-0.396,-13.93c5.092,0 9.771,0.813 14.046,2.438c4.279,1.629 7.962,4.004 11.062,7.125c3.092,3.121 5.509,6.95 7.238,11.487c1.733,4.538 2.596,9.721 2.596,15.542c-0,1.471 -0.067,2.688 -0.196,3.658c-0.129,0.975 -0.367,1.734 -0.708,2.284c-0.342,0.554 -0.8,0.946 -1.38,1.179c-0.579,0.237 -1.308,0.354 -2.2,0.354l-49.895,0c0.579,8.292 2.808,14.379 6.691,18.258c3.879,3.884 9.025,5.825 15.425,5.825c3.146,0 5.863,-0.366 8.146,-1.1c2.279,-0.737 4.271,-1.55 5.979,-2.441c1.704,-0.892 3.2,-1.704 4.488,-2.438c1.283,-0.737 2.529,-1.104 3.733,-1.104c0.792,0 1.471,0.158 2.046,0.471c0.579,0.317 1.075,0.762 1.5,1.342l5.662,7.079c-2.154,2.521 -4.566,4.633 -7.237,6.337c-2.679,1.704 -5.471,3.067 -8.383,4.092c-2.909,1.021 -5.875,1.742 -8.892,2.162c-3.017,0.421 -5.942,0.63 -8.775,0.63c-5.613,-0 -10.833,-0.934 -15.658,-2.792c-4.83,-1.863 -9.025,-4.617 -12.592,-8.263c-3.571,-3.645 -6.375,-8.158 -8.421,-13.537c-2.046,-5.375 -3.067,-11.608 -3.067,-18.692c0,-5.504 0.892,-10.687 2.671,-15.541c1.784,-4.85 4.342,-9.075 7.675,-12.671c3.334,-3.592 7.4,-6.438 12.2,-8.534c4.796,-2.1 10.213,-3.15 16.246,-3.15" style="fill:#3a3a3a;fill-rule:nonzero;"/><path d="M166.475,69.595c-0,2.85 -0.905,5.717 -2.775,8.15c-4.509,5.85 -12.905,6.946 -18.759,2.438l-59.55,-45.846l-59.554,45.846c-5.854,4.508 -14.25,3.412 -18.758,-2.438c-4.504,-5.854 -3.417,-14.254 2.437,-18.754l67.713,-52.129c4.808,-3.704 11.512,-3.704 16.321,0l67.712,52.129c3.417,2.629 5.213,6.596 5.213,10.604" style="fill:#006299;fill-rule:nonzero;"/><path d="M112.088,68.234l0,51.996l-53.354,0l0,-51.892l-21.329,15.617l-0,96.95l21.329,0l0,-45.571l53.354,0l0,45.571l21.325,0l0,-97.054l-21.325,-15.617Z" style="fill:#3a3a3a;fill-rule:nonzero;"/></g></svg>